<svg width="20" height="20" viewBox="0 0 20 20" fill="none" aria-hidden="true" focusable="false" role="img" xmlns="http://www.w3.org/2000/svg">
<path d="M12.3879 16.0841L6.6472 10.3435C6.59268 10.2889 6.55452 10.2344 6.53271 10.1799C6.5109 10.1254 6.5 10.0654 6.5 10C6.5 9.93457 6.5109 9.87461 6.53271 9.82009C6.55452 9.76557 6.59268 9.71105 6.6472 9.65654L12.3879 3.91588C12.5078 3.79595 12.6604 3.73598 12.8458 3.73598C13.0312 3.73598 13.1838 3.79595 13.3037 3.91588C13.4346 4.04672 13.5 4.2021 13.5 4.38201C13.5 4.56191 13.4346 4.71729 13.3037 4.84813L8.15187 10L13.3037 15.1519C13.4346 15.2827 13.4973 15.4381 13.4918 15.618C13.4864 15.7979 13.4237 15.9478 13.3037 16.0678C13.1729 16.1986 13.0175 16.264 12.8376 16.264C12.6577 16.264 12.5078 16.204 12.3879 16.0841V16.0841Z" fill="currentcolor"/>
</svg>
