<svg width="20" height="20" viewBox="0 0 20 20" fill="none" aria-hidden="true" focusable="false" role="img" xmlns="http://www.w3.org/2000/svg">
<path d="M8.77083 11.8958L6.72917 9.85417C6.60417 9.72917 6.45139 9.66667 6.27083 9.66667C6.09028 9.66667 5.93055 9.73612 5.79167 9.87501C5.65278 10.0139 5.58333 10.1736 5.58333 10.3542C5.58333 10.5347 5.65278 10.6875 5.79167 10.8125L8.33333 13.3542C8.45833 13.4792 8.60417 13.5417 8.77083 13.5417C8.9375 13.5417 9.08333 13.4792 9.20833 13.3542L14.2083 8.35417C14.3333 8.22917 14.3924 8.07639 14.3854 7.89584C14.3785 7.71528 14.3125 7.56251 14.1875 7.43751C14.0625 7.29862 13.9062 7.22917 13.7187 7.22917C13.5312 7.22917 13.3681 7.29862 13.2292 7.43751L8.77083 11.8958ZM10 18.3333C8.81944 18.3333 7.72222 18.1215 6.70833 17.6979C5.69444 17.2743 4.8125 16.6875 4.0625 15.9375C3.3125 15.1875 2.72569 14.3056 2.30208 13.2917C1.87847 12.2778 1.66667 11.1806 1.66667 10C1.66667 8.83334 1.87847 7.74306 2.30208 6.72917C2.72569 5.71528 3.3125 4.83334 4.0625 4.08334C4.8125 3.33334 5.69444 2.74306 6.70833 2.31251C7.72222 1.88195 8.81944 1.66667 10 1.66667C11.1667 1.66667 12.2569 1.88195 13.2708 2.31251C14.2847 2.74306 15.1667 3.33334 15.9167 4.08334C16.6667 4.83334 17.2569 5.71528 17.6875 6.72917C18.1181 7.74306 18.3333 8.83334 18.3333 10C18.3333 11.1806 18.1181 12.2778 17.6875 13.2917C17.2569 14.3056 16.6667 15.1875 15.9167 15.9375C15.1667 16.6875 14.2847 17.2743 13.2708 17.6979C12.2569 18.1215 11.1667 18.3333 10 18.3333ZM10 17.0833C12.0139 17.0833 13.6979 16.4063 15.0521 15.0521C16.4062 13.6979 17.0833 12.0139 17.0833 10C17.0833 7.98612 16.4062 6.30209 15.0521 4.94792C13.6979 3.59376 12.0139 2.91667 10 2.91667C7.98611 2.91667 6.30208 3.59376 4.94792 4.94792C3.59375 6.30209 2.91667 7.98612 2.91667 10C2.91667 12.0139 3.59375 13.6979 4.94792 15.0521C6.30208 16.4063 7.98611 17.0833 10 17.0833Z" fill="currentcolor"/>
</svg>
