<?xml version="1.0" standalone="no"?>
<!DOCTYPE svg PUBLIC "-//W3C//DTD SVG 20010904//EN"
 "http://www.w3.org/TR/2001/REC-SVG-20010904/DTD/svg10.dtd">
<svg version="1.0" xmlns="http://www.w3.org/2000/svg"
 width="1000.000000pt" height="1000.000000pt" viewBox="0 0 1000.000000 1000.000000"
 preserveAspectRatio="xMidYMid meet">
<metadata>
Created by potrace 1.14, written by Peter Selinger 2001-2017
</metadata>
<g transform="translate(0.000000,1000.000000) scale(0.100000,-0.100000)"
fill="#000000" stroke="none">
<path d="M4770 8433 c-604 -28 -1261 -201 -1796 -473 -365 -186 -639 -385
-930 -675 -193 -192 -304 -327 -439 -530 -301 -454 -454 -870 -517 -1400 -16
-138 -16 -575 0 -710 79 -660 319 -1209 751 -1720 446 -527 1160 -978 1877
-1184 433 -125 797 -174 1279 -174 424 -1 702 32 1093 128 1096 270 1947 884
2445 1763 207 366 322 723 379 1177 19 155 16 591 -5 756 -50 383 -151 706
-327 1046 -438 845 -1181 1450 -2190 1783 -497 165 -1064 239 -1620 213z m526
-264 c234 -23 471 -81 669 -164 411 -172 773 -474 1019 -852 320 -489 514
-1181 545 -1944 50 -1197 -294 -2241 -926 -2805 -349 -311 -728 -489 -1188
-560 -171 -27 -667 -27 -835 -1 -355 55 -625 155 -885 325 -748 489 -1176
1405 -1224 2619 -26 636 55 1235 234 1728 346 955 1035 1540 1942 1650 134 16
503 19 649 4z"/>
</g>
</svg>
