<svg width="20" height="20" viewBox="0 0 20 20" fill="none" aria-hidden="true" focusable="false" role="img" xmlns="http://www.w3.org/2000/svg">
<path d="M16.0841 7.61215L10.3435 13.3528C10.2889 13.4073 10.2344 13.4455 10.1799 13.4673C10.1254 13.4891 10.0654 13.5 10 13.5C9.93457 13.5 9.87461 13.4891 9.82009 13.4673C9.76557 13.4455 9.71105 13.4073 9.65654 13.3528L3.91588 7.61215C3.79595 7.49221 3.73598 7.33956 3.73598 7.15421C3.73598 6.96885 3.79595 6.8162 3.91588 6.69626C4.04672 6.56542 4.2021 6.5 4.38201 6.5C4.56191 6.5 4.71729 6.56542 4.84813 6.69626L10 11.8481L15.1519 6.69626C15.2827 6.56542 15.4381 6.50273 15.618 6.50818C15.7979 6.51363 15.9478 6.57632 16.0678 6.69626C16.1986 6.8271 16.264 6.98248 16.264 7.16238C16.264 7.34229 16.204 7.49221 16.0841 7.61215Z" fill="currentcolor"/>
</svg>
