<svg width="20" height="20" viewBox="0 0 20 20" fill="none" xmlns="http://www.w3.org/2000/svg">
<path d="M9.29167 16.0208V2.97917C9.29167 2.84028 9.33333 2.72569 9.41667 2.63542C9.5 2.54514 9.61111 2.5 9.75 2.5C9.88889 2.5 10.0035 2.54514 10.0938 2.63542C10.184 2.72569 10.2292 2.84028 10.2292 2.97917V16.0417L12.2083 14.0625C12.2917 13.9792 12.3958 13.9375 12.5208 13.9375C12.6458 13.9375 12.7569 13.9792 12.8542 14.0625C12.9514 14.1597 13 14.2708 13 14.3958C13 14.5208 12.9514 14.6319 12.8542 14.7292L10.1875 17.4167C10.1181 17.4861 10.0486 17.5347 9.97917 17.5625C9.90972 17.5903 9.83333 17.6042 9.75 17.6042C9.66667 17.6042 9.59375 17.5903 9.53125 17.5625C9.46875 17.5347 9.40278 17.4861 9.33333 17.4167L6.64583 14.7292C6.54861 14.6319 6.5 14.5243 6.5 14.4063C6.5 14.2882 6.54861 14.1806 6.64583 14.0833C6.75694 13.9861 6.875 13.9375 7 13.9375C7.125 13.9375 7.22917 13.9792 7.3125 14.0625L9.29167 16.0208Z" fill="currentcolor"/>
</svg>
