<svg width="20" height="20" viewBox="0 0 20 20" fill="none" xmlns="http://www.w3.org/2000/svg">
<path d="M7.61215 3.91589L13.3528 9.65655C13.4073 9.71106 13.4455 9.76558 13.4673 9.8201C13.4891 9.87461 13.5 9.93458 13.5 10C13.5 10.0654 13.4891 10.1254 13.4673 10.1799C13.4455 10.2344 13.4073 10.2889 13.3528 10.3435L7.61215 16.0841C7.49221 16.2041 7.33956 16.264 7.15421 16.264C6.96885 16.264 6.8162 16.2041 6.69626 16.0841C6.56542 15.9533 6.5 15.7979 6.5 15.618C6.5 15.4381 6.56542 15.2827 6.69626 15.1519L11.8481 10L6.69626 4.84813C6.56542 4.71729 6.50273 4.56192 6.50818 4.38201C6.51363 4.20211 6.57632 4.05218 6.69626 3.93225C6.8271 3.80141 6.98248 3.73598 7.16238 3.73598C7.34229 3.73598 7.49221 3.79595 7.61215 3.91589Z" fill="currentcolor"/>
</svg>
