<svg width="100" height="10" viewBox="0 0 100 10" fill="none" xmlns="http://www.w3.org/2000/svg">
<path d="M9.99173 5.43624C9.99173 6.13423 9.85075 6.7651 9.5688 7.32886C9.29566 7.88367 8.92559 8.36242 8.45861 8.7651C8.00043 9.15884 7.46736 9.46309 6.8594 9.67785C6.26025 9.89262 5.63907 10 4.99586 10C4.31741 10 3.67421 9.88814 3.06624 9.66443C2.46709 9.43177 1.93843 9.11409 1.48026 8.71141C1.02208 8.30873 0.660829 7.82998 0.396497 7.27517C0.132166 6.71141 0 6.09843 0 5.43624C0 4.75615 0.136571 4.1387 0.409714 3.58389C0.682856 3.02013 1.04851 2.53691 1.50669 2.13423C1.96486 1.73154 2.49353 1.42282 3.09268 1.20805C3.70064 0.98434 4.33504 0.872483 4.99586 0.872483C5.6655 0.872483 6.2999 0.98434 6.89905 1.20805C7.50701 1.43177 8.04008 1.74497 8.49826 2.14765C8.95643 2.55034 9.31768 3.03356 9.58202 3.59732C9.85516 4.15213 9.99173 4.7651 9.99173 5.43624ZM4.99586 9.66443C5.54215 9.66443 6.01795 9.55257 6.42326 9.32886C6.82856 9.10515 7.16338 8.80537 7.42771 8.42953C7.69205 8.04474 7.89029 7.59732 8.02246 7.08725C8.15463 6.56823 8.22071 6.0179 8.22071 5.43624C8.22071 4.86353 8.15463 4.32215 8.02246 3.81208C7.89911 3.29307 7.70526 2.84116 7.44093 2.45638C7.1766 2.07159 6.83737 1.76734 6.42326 1.54362C6.01795 1.31991 5.53774 1.20805 4.98265 1.20805C4.45399 1.20805 3.987 1.31544 3.58169 1.5302C3.18519 1.74497 2.85037 2.04474 2.57723 2.42953C2.3129 2.80537 2.11025 3.2528 1.96927 3.77181C1.8371 4.28188 1.77102 4.83669 1.77102 5.43624C1.77102 6.0179 1.8371 6.56823 1.96927 7.08725C2.10144 7.59732 2.29968 8.04474 2.56402 8.42953C2.82835 8.81432 3.16317 9.11857 3.56848 9.34228C3.97378 9.55705 4.44958 9.66443 4.99586 9.66443Z" fill="currentcolor"/>
<path d="M13.1638 8.24161C13.1638 8.48322 13.177 8.68009 13.2035 8.83221C13.2387 8.97539 13.2784 9.0962 13.3224 9.19463C13.3753 9.28412 13.4281 9.35571 13.481 9.4094C13.5427 9.45414 13.6 9.49441 13.6528 9.5302C13.7497 9.59284 13.829 9.63311 13.8907 9.65101C13.9612 9.65996 13.9965 9.6868 13.9965 9.73154C13.9788 9.75839 13.9392 9.77181 13.8775 9.77181C13.8423 9.77181 13.7277 9.76286 13.5339 9.74497C13.34 9.73602 12.9964 9.73154 12.503 9.73154C12.1329 9.73154 11.8157 9.73602 11.5514 9.74497C11.2871 9.76286 11.1152 9.77181 11.0359 9.77181C10.9919 9.77181 10.9699 9.75839 10.9699 9.73154C10.9699 9.6868 11.0007 9.65996 11.0624 9.65101C11.1329 9.63311 11.2298 9.57942 11.3531 9.48993C11.5646 9.33781 11.6924 9.14989 11.7364 8.92618C11.7805 8.69351 11.8025 8.434 11.8025 8.14765V1.5302C11.8025 1.2349 11.7673 1.02908 11.6968 0.912752C11.6351 0.787472 11.5602 0.706935 11.4721 0.671141C11.3928 0.626398 11.3179 0.604027 11.2474 0.604027C11.1857 0.595078 11.1549 0.563758 11.1549 0.510067C11.1549 0.483221 11.1813 0.465324 11.2342 0.456376C11.2871 0.438479 11.3884 0.416107 11.5382 0.389262C11.688 0.362416 11.8906 0.322147 12.1461 0.268456C12.4105 0.205817 12.7497 0.116331 13.1638 0V8.24161Z" fill="currentcolor"/>
<path d="M16.9744 1.03356C16.9744 1.23937 16.8995 1.42282 16.7497 1.58389C16.5999 1.74497 16.4105 1.8255 16.1814 1.8255C15.97 1.8255 15.7849 1.74944 15.6263 1.59732C15.4765 1.43624 15.4016 1.24832 15.4016 1.03356C15.4016 0.818792 15.4765 0.630872 15.6263 0.469798C15.7849 0.308725 15.97 0.228188 16.1814 0.228188C16.4105 0.228188 16.5999 0.308725 16.7497 0.469798C16.8995 0.630872 16.9744 0.818792 16.9744 1.03356ZM16.9744 8.1745C16.9744 8.4698 16.992 8.70694 17.0273 8.88591C17.0713 9.06488 17.1242 9.20358 17.1859 9.30201C17.2476 9.40045 17.3136 9.46756 17.3841 9.50336C17.4546 9.53915 17.5207 9.566 17.5824 9.58389C17.6441 9.60179 17.6925 9.61969 17.7278 9.63758C17.7718 9.64653 17.7938 9.67338 17.7938 9.71812C17.7938 9.75392 17.763 9.77181 17.7013 9.77181C17.6837 9.77181 17.6308 9.76734 17.5427 9.75839C17.4546 9.75839 17.3445 9.75392 17.2123 9.74497C17.0801 9.74497 16.9348 9.74049 16.7762 9.73154C16.6176 9.73154 16.4546 9.73154 16.2872 9.73154C16.0493 9.73154 15.8598 9.73154 15.7188 9.73154C15.5867 9.74049 15.4765 9.74497 15.3884 9.74497C15.3091 9.75392 15.2298 9.75839 15.1505 9.75839C15.08 9.76734 14.9875 9.77181 14.873 9.77181C14.8113 9.77181 14.7805 9.75392 14.7805 9.71812C14.7805 9.67338 14.8025 9.64653 14.8465 9.63758C14.8906 9.61969 14.9567 9.59732 15.0448 9.57047C15.221 9.50783 15.3576 9.3736 15.4545 9.16779C15.5602 8.95302 15.6131 8.59955 15.6131 8.10738V4.08054C15.6131 3.85682 15.5779 3.6868 15.5074 3.57047C15.4369 3.45414 15.3576 3.3736 15.2695 3.32886C15.1814 3.27517 15.1021 3.24385 15.0316 3.2349C14.9611 3.217 14.9258 3.19911 14.9258 3.18121C14.9258 3.16331 14.9479 3.15436 14.9919 3.15436C15.0448 3.14541 15.1197 3.13199 15.2166 3.11409C15.3664 3.08725 15.5823 3.04251 15.8642 2.97987C16.155 2.91723 16.5251 2.82327 16.9744 2.69799V8.1745Z" fill="currentcolor"/>
<path d="M19.7409 2.75168C20.0757 2.75168 20.3401 2.74273 20.5339 2.72483C20.7278 2.70694 20.8555 2.69799 20.9172 2.69799C20.9436 2.69799 20.9789 2.70246 21.0229 2.71141C21.0758 2.71141 21.1022 2.72483 21.1022 2.75168C21.1022 2.79642 21.0758 2.82774 21.0229 2.84564C20.9789 2.85459 20.9216 2.87696 20.8511 2.91275C20.7806 2.94855 20.7233 3.00224 20.6793 3.07383C20.6352 3.14541 20.6132 3.24385 20.6132 3.36913C20.6132 3.44966 20.6308 3.55257 20.6661 3.67785C20.7013 3.79418 20.7938 3.99553 20.9436 4.28188L23.0054 8.30873L24.6443 5.07383C24.7588 4.85011 24.8689 4.59508 24.9747 4.30873C25.0892 4.01342 25.1465 3.76286 25.1465 3.55705C25.1465 3.40492 25.1157 3.27964 25.054 3.18121C24.9923 3.08277 24.913 3.00671 24.8161 2.95302C24.7192 2.89933 24.6266 2.86353 24.5385 2.84564C24.4592 2.82774 24.4196 2.79642 24.4196 2.75168C24.4196 2.71588 24.468 2.69799 24.565 2.69799C24.7059 2.69799 24.8425 2.70694 24.9747 2.72483C25.1068 2.74273 25.3007 2.75168 25.5562 2.75168C25.6884 2.75168 25.7941 2.75168 25.8734 2.75168C25.9615 2.74273 26.0408 2.73378 26.1113 2.72483C26.1906 2.71588 26.2655 2.71141 26.336 2.71141C26.4153 2.70246 26.5122 2.69799 26.6267 2.69799C26.6796 2.69799 26.706 2.71141 26.706 2.73826C26.706 2.80984 26.662 2.86801 26.5739 2.91275C26.4946 2.94855 26.3933 3.03803 26.2699 3.18121C26.1201 3.34228 25.9439 3.57494 25.7412 3.87919C25.5386 4.18345 25.2919 4.62192 25.0011 5.19463C24.8073 5.57047 24.5914 5.99105 24.3535 6.45638C24.1156 6.9217 23.8821 7.3736 23.653 7.81208C23.4327 8.25056 23.2301 8.64877 23.0451 9.00671C22.86 9.36465 22.7235 9.62416 22.6353 9.78524C22.5825 9.88367 22.534 9.93289 22.49 9.93289C22.4723 9.93289 22.4591 9.92841 22.4503 9.91946C22.4415 9.91052 22.4239 9.8792 22.3974 9.8255C22.3534 9.73602 22.2653 9.566 22.1331 9.31544C22.0098 9.06488 21.8644 8.77852 21.697 8.45638C21.5384 8.13423 21.3666 7.79866 21.1815 7.44966C21.0053 7.09172 20.8379 6.75615 20.6793 6.44295C20.5207 6.12975 20.3841 5.8613 20.2696 5.63758C20.155 5.41387 20.0845 5.27069 20.0581 5.20805C19.785 4.6264 19.5339 4.15213 19.3048 3.78524C19.0845 3.4094 18.8818 3.14541 18.6968 2.99329C18.5999 2.9217 18.525 2.87248 18.4721 2.84564C18.4193 2.81879 18.3928 2.78747 18.3928 2.75168C18.3928 2.71588 18.4501 2.69799 18.5646 2.69799C18.6704 2.69799 18.8113 2.70694 18.9876 2.72483C19.1726 2.74273 19.4237 2.75168 19.7409 2.75168Z" fill="currentcolor"/>
<path d="M29.4873 1.03356C29.4873 1.23937 29.4124 1.42282 29.2626 1.58389C29.1128 1.74497 28.9234 1.8255 28.6943 1.8255C28.4828 1.8255 28.2978 1.74944 28.1392 1.59732C27.9894 1.43624 27.9145 1.24832 27.9145 1.03356C27.9145 0.818792 27.9894 0.630872 28.1392 0.469798C28.2978 0.308725 28.4828 0.228188 28.6943 0.228188C28.9234 0.228188 29.1128 0.308725 29.2626 0.469798C29.4124 0.630872 29.4873 0.818792 29.4873 1.03356ZM29.4873 8.1745C29.4873 8.4698 29.5049 8.70694 29.5402 8.88591C29.5842 9.06488 29.6371 9.20358 29.6988 9.30201C29.7605 9.40045 29.8265 9.46756 29.897 9.50336C29.9675 9.53915 30.0336 9.566 30.0953 9.58389C30.1569 9.60179 30.2054 9.61969 30.2407 9.63758C30.2847 9.64653 30.3067 9.67338 30.3067 9.71812C30.3067 9.75392 30.2759 9.77181 30.2142 9.77181C30.1966 9.77181 30.1437 9.76734 30.0556 9.75839C29.9675 9.75839 29.8574 9.75392 29.7252 9.74497C29.593 9.74497 29.4477 9.74049 29.2891 9.73154C29.1305 9.73154 28.9675 9.73154 28.8 9.73154C28.5621 9.73154 28.3727 9.73154 28.2317 9.73154C28.0996 9.74049 27.9894 9.74497 27.9013 9.74497C27.822 9.75392 27.7427 9.75839 27.6634 9.75839C27.5929 9.76734 27.5004 9.77181 27.3859 9.77181C27.3242 9.77181 27.2934 9.75392 27.2934 9.71812C27.2934 9.67338 27.3154 9.64653 27.3594 9.63758C27.4035 9.61969 27.4696 9.59732 27.5577 9.57047C27.7339 9.50783 27.8705 9.3736 27.9674 9.16779C28.0731 8.95302 28.126 8.59955 28.126 8.10738V4.08054C28.126 3.85682 28.0908 3.6868 28.0203 3.57047C27.9498 3.45414 27.8705 3.3736 27.7824 3.32886C27.6943 3.27517 27.615 3.24385 27.5445 3.2349C27.474 3.217 27.4387 3.19911 27.4387 3.18121C27.4387 3.16331 27.4608 3.15436 27.5048 3.15436C27.5577 3.14541 27.6326 3.13199 27.7295 3.11409C27.8793 3.08725 28.0952 3.04251 28.3771 2.97987C28.6679 2.91723 29.0379 2.82327 29.4873 2.69799V8.1745Z" fill="currentcolor"/>
<path d="M37.7915 8.5906C37.7915 8.81432 37.8224 9.01566 37.8841 9.19463C37.9457 9.3736 38.0559 9.49888 38.2145 9.57047C38.2762 9.60626 38.3202 9.62864 38.3466 9.63758C38.3819 9.64653 38.3995 9.65996 38.3995 9.67785C38.3995 9.69575 38.3819 9.70917 38.3466 9.71812C38.3114 9.72707 38.2806 9.73154 38.2541 9.73154H36.8003C36.6153 9.30201 36.5095 8.84564 36.4831 8.36242H36.4567C36.2012 8.90828 35.8751 9.30649 35.4786 9.55705C35.0822 9.80761 34.5931 9.93289 34.0116 9.93289C33.5975 9.93289 33.2186 9.8792 32.875 9.77181C32.5402 9.67338 32.2494 9.5302 32.0027 9.34228C31.756 9.14541 31.5621 8.90828 31.4212 8.63087C31.289 8.35347 31.2229 8.04027 31.2229 7.69128C31.2229 7.30649 31.3286 6.97092 31.5401 6.68456C31.7604 6.39821 32.0644 6.16555 32.4521 5.98658C32.8486 5.80761 33.3199 5.67338 33.8662 5.58389C34.4125 5.49441 35.0117 5.44966 35.6637 5.44966H36.4302V5.00671C36.4302 4.60403 36.3774 4.26398 36.2716 3.98658C36.1747 3.70917 36.0382 3.48546 35.8619 3.31544C35.6857 3.13647 35.4786 3.00671 35.2408 2.92617C35.0117 2.84564 34.765 2.80537 34.5006 2.80537C34.1041 2.80537 33.7825 2.84116 33.5358 2.91275C33.2979 2.98434 33.0953 3.0783 32.9279 3.19463C32.7604 3.31096 32.6195 3.44966 32.5049 3.61074C32.3904 3.77181 32.2979 3.92394 32.2274 4.06711C32.1569 4.21029 32.0996 4.3311 32.0556 4.42953C32.0203 4.52796 31.9983 4.57718 31.9895 4.57718C31.9719 4.57718 31.9366 4.47875 31.8837 4.28188C31.8397 4.12975 31.7868 3.95078 31.7251 3.74497C31.6723 3.5302 31.6238 3.3557 31.5798 3.22148C31.8353 3.08725 32.0776 2.97987 32.3067 2.89933C32.5446 2.80984 32.7825 2.73825 33.0204 2.68456C33.2671 2.63087 33.5226 2.59508 33.7869 2.57718C34.0601 2.55928 34.3596 2.55034 34.6857 2.55034C35.6725 2.55034 36.4346 2.75168 36.9721 3.15436C37.5184 3.5481 37.7915 4.08054 37.7915 4.75168V8.5906ZM34.3949 9.59732C34.7385 9.59732 35.0381 9.51678 35.2936 9.35571C35.5491 9.19463 35.7606 8.97987 35.928 8.71141C36.0954 8.44295 36.2188 8.12975 36.2981 7.77181C36.3862 7.41387 36.4302 7.03803 36.4302 6.6443V5.7047H35.624C34.6901 5.7047 33.9764 5.88814 33.4829 6.25503C32.9983 6.62192 32.756 7.17226 32.756 7.90604C32.756 8.14765 32.7957 8.37136 32.875 8.57718C32.9631 8.783 33.0776 8.96197 33.2186 9.11409C33.3684 9.26622 33.5402 9.38703 33.7341 9.47651C33.9367 9.55705 34.157 9.59732 34.3949 9.59732Z" fill="currentcolor"/>
<path d="M45.5701 1.14094C45.8345 1.14094 46.0768 1.13199 46.297 1.11409C46.5173 1.0962 46.6583 1.08725 46.72 1.08725C46.7464 1.08725 46.7816 1.09172 46.8257 1.10067C46.8698 1.10067 46.8918 1.11857 46.8918 1.15436C46.8918 1.16331 46.8742 1.17226 46.8389 1.18121C46.8037 1.19016 46.7772 1.1991 46.7596 1.20805C46.6363 1.27964 46.5393 1.38255 46.4688 1.51678C46.3984 1.65101 46.3631 1.89709 46.3631 2.25503V5.18121L49.1518 2.79195C49.4338 2.55928 49.6673 2.3311 49.8523 2.10738C50.0373 1.87472 50.1298 1.70917 50.1298 1.61074C50.1298 1.52125 50.1078 1.44966 50.0638 1.39597C50.0285 1.34228 49.9845 1.30201 49.9316 1.27517C49.8875 1.23937 49.8435 1.21253 49.7994 1.19463C49.7642 1.17673 49.7466 1.15884 49.7466 1.14094C49.7466 1.10515 49.8038 1.08725 49.9184 1.08725C49.9624 1.08725 50.1034 1.0962 50.3413 1.11409C50.588 1.13199 50.8656 1.14094 51.1739 1.14094C51.544 1.14094 51.8304 1.13199 52.033 1.11409C52.2357 1.0962 52.3502 1.08725 52.3767 1.08725C52.4295 1.08725 52.456 1.10515 52.456 1.14094C52.456 1.16779 52.3723 1.20805 52.2048 1.26174C52.0462 1.31544 51.8392 1.41834 51.5837 1.57047C51.3546 1.7047 51.077 1.87919 50.751 2.09396C50.4338 2.30873 50.121 2.54586 49.8126 2.80537L47.1297 4.97987L47.1561 5.00671H47.3279C47.839 5.00671 48.3192 5.08277 48.7685 5.2349C49.2267 5.37808 49.6012 5.61521 49.8919 5.94631C50.0065 6.07159 50.1166 6.23266 50.2224 6.42953C50.3369 6.6264 50.4426 6.8009 50.5396 6.95302C50.6717 7.15884 50.8259 7.39597 51.0021 7.66443C51.1872 7.93289 51.381 8.19239 51.5837 8.44295C51.7863 8.69351 51.9758 8.91275 52.152 9.10067C52.3282 9.28859 52.478 9.41834 52.6013 9.48993C52.6983 9.54362 52.7643 9.58837 52.7996 9.62416C52.8348 9.65101 52.8525 9.67338 52.8525 9.69128C52.8525 9.74497 52.7952 9.77181 52.6806 9.77181C52.6366 9.77181 52.522 9.76286 52.337 9.74497C52.1608 9.73602 51.9537 9.73154 51.7158 9.73154C51.4515 9.73154 51.24 9.73602 51.0814 9.74497C50.9228 9.76286 50.8083 9.77181 50.7378 9.77181C50.5528 9.77181 50.4294 9.74497 50.3677 9.69128C50.2972 9.62864 49.9316 9.02461 49.2708 7.8792C48.9536 7.32439 48.6936 6.89038 48.491 6.57718C48.2883 6.25503 48.1077 6.00447 47.9491 5.8255C47.7553 5.61969 47.5879 5.49441 47.4469 5.44966C47.3059 5.39597 47.1869 5.36913 47.09 5.36913C46.8609 5.36913 46.6803 5.43624 46.5481 5.57047C46.4248 5.69575 46.3631 5.93736 46.3631 6.2953V8.37584C46.3631 8.71588 46.4116 8.96197 46.5085 9.11409C46.6054 9.26622 46.7112 9.38703 46.8257 9.47651C46.9226 9.5481 47.0063 9.59732 47.0768 9.62416C47.1561 9.65101 47.1958 9.6868 47.1958 9.73154C47.1958 9.74944 47.1693 9.75839 47.1165 9.75839C47.0724 9.76734 47.0195 9.77181 46.9579 9.77181C46.8257 9.77181 46.6319 9.76286 46.3763 9.74497C46.1296 9.73602 45.8697 9.73154 45.5966 9.73154C45.3234 9.73154 45.0591 9.73602 44.8036 9.74497C44.5568 9.76286 44.363 9.77181 44.222 9.77181C44.1251 9.77181 44.0634 9.76734 44.037 9.75839C44.0106 9.75839 43.9973 9.74944 43.9973 9.73154C43.9973 9.6868 44.0458 9.64653 44.1427 9.61074C44.2485 9.566 44.341 9.50783 44.4203 9.43624C44.5524 9.31991 44.6538 9.18121 44.7243 9.02014C44.7947 8.85906 44.83 8.63087 44.83 8.33557V2.28188C44.83 1.98658 44.7992 1.76734 44.7375 1.62416C44.6846 1.48098 44.6229 1.38255 44.5524 1.32886C44.4908 1.26622 44.4291 1.23043 44.3674 1.22148C44.3145 1.20358 44.2881 1.18121 44.2881 1.15436C44.2881 1.13647 44.3057 1.12304 44.341 1.11409C44.385 1.0962 44.4159 1.08725 44.4335 1.08725C44.4776 1.08725 44.5392 1.09172 44.6185 1.10067C44.7066 1.10067 44.8036 1.10515 44.9093 1.11409C45.015 1.12304 45.1252 1.13199 45.2397 1.14094C45.3542 1.14094 45.4644 1.14094 45.5701 1.14094Z" fill="currentcolor"/>
<path d="M61.167 6.24161C61.167 6.76958 61.0701 7.25727 60.8763 7.7047C60.6824 8.15213 60.4137 8.54139 60.07 8.87248C59.7264 9.20358 59.3123 9.46309 58.8277 9.65101C58.3519 9.83893 57.8232 9.93289 57.2417 9.93289C56.669 9.93289 56.1403 9.83893 55.6557 9.65101C55.1799 9.46309 54.7702 9.20805 54.4266 8.88591C54.0829 8.55481 53.8142 8.16555 53.6204 7.71812C53.4265 7.26175 53.3296 6.76958 53.3296 6.24161C53.3296 5.71365 53.4265 5.22595 53.6204 4.77852C53.8142 4.32215 54.0829 3.93289 54.4266 3.61074C54.779 3.27964 55.1931 3.02013 55.6689 2.83222C56.1447 2.6443 56.669 2.55034 57.2417 2.55034C57.8144 2.55034 58.3387 2.6443 58.8145 2.83222C59.2991 3.02013 59.7132 3.27964 60.0568 3.61074C60.4093 3.93289 60.6824 4.32215 60.8763 4.77852C61.0701 5.22595 61.167 5.71365 61.167 6.24161ZM57.2417 9.67785C58.0171 9.67785 58.6074 9.39597 59.0127 8.83221C59.4268 8.26846 59.6339 7.40492 59.6339 6.24161C59.6339 5.08725 59.4312 4.22819 59.0259 3.66443C58.6206 3.09172 58.0215 2.80537 57.2285 2.80537C56.4619 2.80537 55.876 3.09172 55.4707 3.66443C55.0654 4.22819 54.8627 5.08725 54.8627 6.24161C54.8627 7.38703 55.061 8.24609 55.4575 8.81879C55.8628 9.3915 56.4575 9.67785 57.2417 9.67785Z" fill="currentcolor"/>
<path d="M66.9161 2.55034L66.361 3.93289C66.2465 3.8434 66.1143 3.78523 65.9645 3.75839C65.8236 3.73154 65.687 3.71812 65.5548 3.71812C65.1936 3.71812 64.8896 3.91051 64.6429 4.2953C64.5195 4.49217 64.427 4.70694 64.3653 4.9396C64.3125 5.16331 64.286 5.3736 64.286 5.57047V8.10738C64.286 8.57271 64.3257 8.90828 64.405 9.11409C64.4843 9.31991 64.6032 9.46756 64.7618 9.55705C64.8323 9.60179 64.916 9.63311 65.0129 9.65101C65.1187 9.6689 65.1715 9.69575 65.1715 9.73154C65.1715 9.74049 65.1671 9.74944 65.1583 9.75839C65.1495 9.76734 65.1187 9.77181 65.0658 9.77181C65.0129 9.77181 64.8455 9.76286 64.5636 9.74497C64.2904 9.73602 63.9688 9.73154 63.5988 9.73154C63.2287 9.73154 62.9115 9.73602 62.6472 9.74497C62.3828 9.76286 62.2287 9.77181 62.1846 9.77181C62.1582 9.77181 62.1317 9.76734 62.1053 9.75839C62.0789 9.75839 62.0656 9.74944 62.0656 9.73154C62.0656 9.71365 62.0745 9.7047 62.0921 9.7047C62.1185 9.69575 62.1802 9.67338 62.2771 9.63758C62.374 9.60179 62.4577 9.56152 62.5282 9.51678C62.6075 9.46309 62.678 9.3915 62.7397 9.30201C62.8014 9.21253 62.8454 9.0783 62.8719 8.89933C62.9071 8.72036 62.9247 8.46532 62.9247 8.13423V4.73826C62.9247 4.4877 62.9159 4.28188 62.8983 4.12081C62.8807 3.95078 62.8542 3.81656 62.819 3.71812C62.7837 3.61074 62.7397 3.5302 62.6868 3.47651C62.6428 3.42282 62.5899 3.38255 62.5282 3.3557C62.4666 3.32886 62.4137 3.31096 62.3696 3.30201C62.2639 3.26622 62.211 3.2349 62.211 3.20805C62.211 3.19911 62.2507 3.18568 62.33 3.16779C62.3652 3.15884 62.4401 3.14541 62.5547 3.12752C62.6692 3.10962 62.8278 3.0783 63.0305 3.03356C63.4534 2.93512 63.8455 2.82327 64.2067 2.69799V4.42953H64.2332C64.5415 3.77629 64.9204 3.30201 65.3698 3.00671C65.8192 2.70246 66.2994 2.55034 66.8104 2.55034H66.9161Z" fill="currentcolor"/>
<path d="M75.3836 6.24161C75.3836 6.76958 75.2867 7.25727 75.0929 7.7047C74.899 8.15213 74.6303 8.54139 74.2866 8.87248C73.943 9.20358 73.5289 9.46309 73.0443 9.65101C72.5685 9.83893 72.0398 9.93289 71.4583 9.93289C70.8856 9.93289 70.3569 9.83893 69.8723 9.65101C69.3965 9.46309 68.9868 9.20805 68.6432 8.88591C68.2995 8.55481 68.0308 8.16555 67.8369 7.71812C67.6431 7.26175 67.5462 6.76958 67.5462 6.24161C67.5462 5.71365 67.6431 5.22595 67.8369 4.77852C68.0308 4.32215 68.2995 3.93289 68.6432 3.61074C68.9956 3.27964 69.4097 3.02013 69.8855 2.83222C70.3613 2.6443 70.8856 2.55034 71.4583 2.55034C72.031 2.55034 72.5553 2.6443 73.0311 2.83222C73.5157 3.02013 73.9298 3.27964 74.2734 3.61074C74.6259 3.93289 74.899 4.32215 75.0929 4.77852C75.2867 5.22595 75.3836 5.71365 75.3836 6.24161ZM71.4583 9.67785C72.2337 9.67785 72.824 9.39597 73.2293 8.83221C73.6434 8.26846 73.8505 7.40492 73.8505 6.24161C73.8505 5.08725 73.6478 4.22819 73.2425 3.66443C72.8372 3.09172 72.2381 2.80537 71.4451 2.80537C70.6785 2.80537 70.0926 3.09172 69.6873 3.66443C69.282 4.22819 69.0793 5.08725 69.0793 6.24161C69.0793 7.38703 69.2776 8.24609 69.6741 8.81879C70.0794 9.3915 70.6741 9.67785 71.4583 9.67785Z" fill="currentcolor"/>
<path d="M82.3883 3.74497C82.3354 3.89709 82.2958 4.0179 82.2693 4.10738C82.2429 4.18792 82.2077 4.22819 82.1636 4.22819C82.1107 4.22819 82.0799 4.19687 82.0711 4.13423C82.0711 4.07159 82.0491 3.99105 82.005 3.89262C81.961 3.78523 81.8861 3.6689 81.7803 3.54362C81.6746 3.4094 81.5336 3.28859 81.3574 3.18121C81.19 3.07383 80.9829 2.98434 80.7362 2.91275C80.4983 2.84116 80.2296 2.80537 79.93 2.80537C79.322 2.80537 78.8463 2.94855 78.5026 3.2349C78.1678 3.5123 78.0004 3.90604 78.0004 4.41611C78.0004 4.82774 78.2075 5.12752 78.6216 5.31544C79.0357 5.50336 79.6701 5.61969 80.5248 5.66443C80.7186 5.68233 80.8992 5.7047 81.0666 5.73154C81.234 5.74944 81.3926 5.77629 81.5424 5.81208C82.0535 5.93736 82.4324 6.13423 82.6791 6.40268C82.9346 6.67114 83.0623 7.05593 83.0623 7.55705C83.0623 7.95973 82.9654 8.3132 82.7716 8.61745C82.5865 8.91275 82.3266 9.15884 81.9918 9.35571C81.657 9.55257 81.2649 9.69575 80.8155 9.78524C80.3662 9.88367 79.8816 9.93289 79.3617 9.93289C78.8507 9.93289 78.3308 9.89262 77.8021 9.81208C77.2823 9.73154 76.7668 9.59284 76.2558 9.39597L76.4408 8.6443C76.4937 8.43848 76.5334 8.28635 76.5598 8.18792C76.5862 8.08054 76.6171 8.02685 76.6523 8.02685C76.6964 8.02685 76.7184 8.05817 76.7184 8.12081C76.7272 8.1745 76.7536 8.25951 76.7977 8.37584C76.8594 8.54586 76.9783 8.71141 77.1545 8.87248C77.3308 9.02461 77.5378 9.16331 77.7757 9.28859C78.0136 9.40492 78.2779 9.49888 78.5687 9.57047C78.8595 9.64206 79.159 9.67785 79.4674 9.67785C79.7846 9.67785 80.0798 9.64653 80.3529 9.58389C80.6261 9.51231 80.864 9.4094 81.0666 9.27517C81.2781 9.14094 81.4411 8.97539 81.5557 8.77852C81.679 8.57271 81.7407 8.33557 81.7407 8.06711C81.7407 7.79866 81.6746 7.57494 81.5424 7.39597C81.4103 7.20805 81.1547 7.06488 80.7759 6.96644C80.6085 6.9217 80.397 6.88591 80.1415 6.85906C79.8948 6.82327 79.6569 6.79642 79.4278 6.77852C78.5202 6.69799 77.833 6.49664 77.366 6.1745C76.9078 5.85235 76.6787 5.39597 76.6787 4.80537C76.6787 4.43848 76.758 4.11633 76.9166 3.83893C77.084 3.55257 77.3175 3.31544 77.6171 3.12752C77.9167 2.9396 78.2823 2.79642 78.7141 2.69799C79.1458 2.59955 79.626 2.55034 80.1547 2.55034C80.5512 2.55034 80.9697 2.59955 81.4103 2.69799C81.8596 2.78747 82.2605 2.90828 82.613 3.0604L82.3883 3.74497Z" fill="currentcolor"/>
<path d="M90.7441 8.5906C90.7441 8.81432 90.7749 9.01566 90.8366 9.19463C90.8983 9.3736 91.0084 9.49888 91.167 9.57047C91.2287 9.60626 91.2727 9.62864 91.2992 9.63758C91.3344 9.64653 91.352 9.65996 91.352 9.67785C91.352 9.69575 91.3344 9.70917 91.2992 9.71812C91.2639 9.72707 91.2331 9.73154 91.2066 9.73154H89.7528C89.5678 9.30201 89.4621 8.84564 89.4356 8.36242H89.4092C89.1537 8.90828 88.8277 9.30649 88.4312 9.55705C88.0347 9.80761 87.5456 9.93289 86.9641 9.93289C86.55 9.93289 86.1711 9.8792 85.8275 9.77181C85.4927 9.67338 85.2019 9.5302 84.9552 9.34228C84.7085 9.14541 84.5146 8.90828 84.3737 8.63087C84.2415 8.35347 84.1754 8.04027 84.1754 7.69128C84.1754 7.30649 84.2812 6.97092 84.4926 6.68456C84.7129 6.39821 85.0169 6.16555 85.4046 5.98658C85.8011 5.80761 86.2725 5.67338 86.8187 5.58389C87.365 5.49441 87.9642 5.44966 88.6162 5.44966H89.3827V5.00671C89.3827 4.60403 89.3299 4.26398 89.2241 3.98658C89.1272 3.70917 88.9907 3.48546 88.8144 3.31544C88.6382 3.13647 88.4312 3.00671 88.1933 2.92617C87.9642 2.84564 87.7175 2.80537 87.4531 2.80537C87.0566 2.80537 86.735 2.84116 86.4883 2.91275C86.2504 2.98434 86.0478 3.0783 85.8804 3.19463C85.7129 3.31096 85.572 3.44966 85.4574 3.61074C85.3429 3.77181 85.2504 3.92394 85.1799 4.06711C85.1094 4.21029 85.0521 4.3311 85.0081 4.42953C84.9728 4.52796 84.9508 4.57718 84.942 4.57718C84.9244 4.57718 84.8891 4.47875 84.8362 4.28188C84.7922 4.12975 84.7393 3.95078 84.6776 3.74497C84.6248 3.5302 84.5763 3.3557 84.5323 3.22148C84.7878 3.08725 85.0301 2.97987 85.2592 2.89933C85.4971 2.80984 85.735 2.73825 85.9729 2.68456C86.2196 2.63087 86.4751 2.59508 86.7394 2.57718C87.0126 2.55928 87.3122 2.55034 87.6382 2.55034C88.625 2.55034 89.3872 2.75168 89.9246 3.15436C90.4709 3.5481 90.7441 4.08054 90.7441 4.75168V8.5906ZM87.3474 9.59732C87.691 9.59732 87.9906 9.51678 88.2461 9.35571C88.5016 9.19463 88.7131 8.97987 88.8805 8.71141C89.0479 8.44295 89.1713 8.12975 89.2506 7.77181C89.3387 7.41387 89.3827 7.03803 89.3827 6.6443V5.7047H88.5765C87.6426 5.7047 86.9289 5.88814 86.4355 6.25503C85.9508 6.62192 85.7085 7.17226 85.7085 7.90604C85.7085 8.14765 85.7482 8.37136 85.8275 8.57718C85.9156 8.783 86.0301 8.96197 86.1711 9.11409C86.3209 9.26622 86.4927 9.38703 86.6866 9.47651C86.8892 9.55705 87.1095 9.59732 87.3474 9.59732Z" fill="currentcolor"/>
<path d="M94.3565 5.79866L96.6562 3.85235C96.7796 3.74497 96.8765 3.63758 96.947 3.5302C97.0263 3.42282 97.0659 3.31991 97.0659 3.22148C97.0659 3.14989 97.0483 3.09172 97.013 3.04698C96.9778 2.99329 96.9338 2.94855 96.8809 2.91275C96.8368 2.87696 96.7972 2.85011 96.7619 2.83222C96.7267 2.80537 96.7091 2.783 96.7091 2.7651C96.7091 2.72036 96.7707 2.69799 96.8941 2.69799C96.9558 2.69799 97.0924 2.70694 97.3038 2.72483C97.5241 2.74273 97.8105 2.75168 98.1629 2.75168C98.4625 2.75168 98.696 2.74273 98.8634 2.72483C99.0308 2.70694 99.2026 2.69799 99.3788 2.69799C99.4669 2.69799 99.5198 2.70694 99.5374 2.72483C99.5638 2.73378 99.5771 2.7472 99.5771 2.7651C99.5771 2.82774 99.489 2.86353 99.3127 2.87248C99.1453 2.88143 98.8986 2.95749 98.5726 3.10067C98.2818 3.22595 98.0131 3.36465 97.7664 3.51678C97.5285 3.65996 97.2774 3.83445 97.013 4.04027L95.0438 5.55705V5.58389C95.7134 5.59284 96.2421 5.71365 96.6298 5.94631C96.7443 6.0179 96.8545 6.10291 96.9602 6.20134C97.0747 6.29083 97.1893 6.40716 97.3038 6.55034C97.4184 6.68456 97.5373 6.85011 97.6607 7.04698C97.7928 7.2349 97.9382 7.45861 98.0968 7.71812C98.3788 8.18345 98.6519 8.56376 98.9162 8.85906C99.1894 9.15436 99.4405 9.36913 99.6696 9.50336C99.7929 9.57494 99.8766 9.61969 99.9207 9.63758C99.9736 9.65548 100 9.67785 100 9.7047C100 9.74944 99.9515 9.77181 99.8546 9.77181C99.837 9.77181 99.7885 9.76734 99.7092 9.75839C99.6299 9.75839 99.5286 9.75392 99.4053 9.74497C99.2907 9.74497 99.1585 9.74049 99.0088 9.73154C98.8678 9.73154 98.7224 9.73154 98.5726 9.73154C98.3964 9.73154 98.2334 9.73602 98.0836 9.74497C97.9426 9.76286 97.8016 9.77181 97.6607 9.77181L96.0615 7.04698C95.9998 6.9396 95.9249 6.82327 95.8368 6.69799C95.7487 6.57271 95.6517 6.45638 95.546 6.34899C95.4403 6.24161 95.3257 6.15213 95.2024 6.08054C95.079 6 94.9513 5.95973 94.8191 5.95973C94.6869 5.95973 94.5768 6.0179 94.4887 6.13423C94.4006 6.25056 94.3565 6.50559 94.3565 6.89933V8.28188C94.3565 8.62192 94.3962 8.88591 94.4755 9.07383C94.5548 9.26175 94.6605 9.40045 94.7927 9.48993C94.9248 9.57942 95.0218 9.62864 95.0834 9.63758C95.1539 9.63758 95.1892 9.65996 95.1892 9.7047C95.1892 9.74944 95.1407 9.77181 95.0438 9.77181C94.9997 9.77181 94.8543 9.76286 94.6076 9.74497C94.3609 9.73602 94.0481 9.73154 93.6693 9.73154C93.3344 9.73154 93.0393 9.73602 92.7837 9.74497C92.537 9.76286 92.3917 9.77181 92.3476 9.77181C92.2595 9.77181 92.2154 9.74944 92.2154 9.7047C92.2154 9.65996 92.2375 9.63758 92.2815 9.63758C92.3344 9.62864 92.4093 9.59284 92.5062 9.5302C92.7353 9.38703 92.8763 9.11857 92.9291 8.72483C92.9556 8.53691 92.9732 8.35794 92.982 8.18792C92.9908 8.00895 92.9952 7.81656 92.9952 7.61074V2.09396C92.9952 1.8255 92.982 1.60626 92.9556 1.43624C92.9379 1.26622 92.9071 1.13199 92.863 1.03356C92.8278 0.926175 92.7837 0.850112 92.7309 0.805369C92.678 0.760626 92.6207 0.729306 92.5591 0.711409C92.4533 0.684564 92.3784 0.662192 92.3344 0.644295C92.2991 0.626398 92.2815 0.608501 92.2815 0.590604C92.2815 0.545861 92.3344 0.514541 92.4401 0.496644C92.5547 0.469798 92.7133 0.42953 92.9159 0.375839C93.1186 0.322148 93.3432 0.263982 93.59 0.201342C93.8367 0.138703 94.0922 0.0715885 94.3565 0V5.79866Z" fill="currentcolor"/>
</svg>
