<svg width="20" height="20" viewBox="0 0 20 20" fill="none" xmlns="http://www.w3.org/2000/svg">
<path d="M8.525 13.8583C8.43055 13.9528 8.31111 14 8.16666 14C8.02222 14 7.90277 13.9528 7.80833 13.8583C7.71389 13.7639 7.66666 13.65 7.66666 13.5167V6.5C7.66666 6.35556 7.71389 6.23611 7.80833 6.14167C7.90277 6.04722 8.02222 6 8.16666 6C8.31111 6 8.43055 6.04722 8.525 6.14167C8.61944 6.23611 8.66666 6.35 8.66666 6.48333V13.5C8.66666 13.6444 8.61944 13.7639 8.525 13.8583Z" fill="currentcolor"/>
<path d="M12.525 13.8583C12.4306 13.9528 12.3111 14 12.1667 14C12.0222 14 11.9028 13.9528 11.8083 13.8583C11.7139 13.7639 11.6667 13.65 11.6667 13.5167V6.5C11.6667 6.35556 11.7139 6.23611 11.8083 6.14167C11.9028 6.04722 12.0222 6 12.1667 6C12.3111 6 12.4306 6.04722 12.525 6.14167C12.6194 6.23611 12.6667 6.35 12.6667 6.48333V13.5C12.6667 13.6444 12.6194 13.7639 12.525 13.8583Z" fill="currentcolor"/>
</svg>
