<svg width="20" height="20" viewBox="0 0 20 20" fill="none" aria-hidden="true" focusable="false" role="img" xmlns="http://www.w3.org/2000/svg">
<path d="M13.8333 14C13.6889 14 13.5694 13.9528 13.475 13.8583C13.3806 13.7639 13.3333 13.6444 13.3333 13.5V6.5C13.3333 6.35556 13.3806 6.23611 13.475 6.14167C13.5694 6.04722 13.6889 6 13.8333 6C13.9778 6 14.0972 6.04722 14.1917 6.14167C14.2861 6.23611 14.3333 6.35556 14.3333 6.5V13.5C14.3333 13.6444 14.2861 13.7639 14.1917 13.8583C14.0972 13.9528 13.9778 14 13.8333 14ZM6.45001 13.45C6.28334 13.5722 6.11112 13.5833 5.93334 13.4833C5.75556 13.3833 5.66667 13.2389 5.66667 13.05V6.95C5.66667 6.75 5.75556 6.60278 5.93334 6.50833C6.11112 6.41389 6.28334 6.42778 6.45001 6.55L10.8333 9.58333C10.9889 9.68333 11.0667 9.82222 11.0667 10C11.0667 10.1778 10.9889 10.3167 10.8333 10.4167L6.45001 13.45Z" fill="currentcolor"/>
</svg>
