<svg width="20" height="20" viewBox="0 0 20 20" fill="none" xmlns="http://www.w3.org/2000/svg">
<path d="M6.16666 14C6.02222 14 5.90278 13.9528 5.80833 13.8583C5.71389 13.7639 5.66666 13.6444 5.66666 13.5V6.5C5.66666 6.35556 5.71389 6.23611 5.80833 6.14167C5.90278 6.04722 6.02222 6 6.16666 6C6.31111 6 6.43055 6.04722 6.525 6.14167C6.61944 6.23611 6.66666 6.35556 6.66666 6.5V13.5C6.66666 13.6444 6.61944 13.7639 6.525 13.8583C6.43055 13.9528 6.31111 14 6.16666 14ZM13.55 13.45L9.16666 10.4167C9.01111 10.3167 8.93333 10.1778 8.93333 10C8.93333 9.82222 9.01111 9.68333 9.16666 9.58333L13.55 6.55C13.7167 6.42778 13.8889 6.41389 14.0667 6.50833C14.2444 6.60278 14.3333 6.75 14.3333 6.95V13.05C14.3333 13.2389 14.2444 13.3833 14.0667 13.4833C13.8889 13.5833 13.7167 13.5722 13.55 13.45V13.45Z" fill="currentcolor"/>
</svg>
