<svg width="20" height="20" viewBox="0 0 20 20" fill="none" xmlns="http://www.w3.org/2000/svg">
<path d="M7.93531 12.5892L13.3369 9.79913L7.93531 6.97549V12.5892ZM10.0004 2.96825C14.2083 2.96825 16.9984 3.16897 16.9984 3.16897C17.3891 3.21397 18.2484 3.21397 19.007 4.01756C19.007 4.01756 19.6206 4.62043 19.7992 6.00404C20.0113 7.62265 19.9999 9.24055 19.9999 9.24055V10.7584C19.9999 10.7584 20.0113 12.3771 19.7992 13.9949C19.6206 15.3678 19.007 15.9814 19.007 15.9814C18.2484 16.7736 17.3884 16.7736 16.9984 16.8186C16.9984 16.8186 14.2083 17.0307 10.0004 17.0307C4.79951 16.9857 3.20304 16.83 3.20304 16.83C2.75661 16.7522 1.75229 16.7743 0.99299 15.9814C0.99299 15.9814 0.379403 15.3678 0.200827 13.9949C-0.0113207 12.3763 0.000108121 10.7584 0.000108121 10.7584V9.24055C0.000108121 9.24055 -0.0113207 7.62193 0.200827 6.00404C0.379403 4.62043 0.99299 4.01756 0.99299 4.01756C1.75158 3.21397 2.6116 3.21397 3.00161 3.16897C3.00161 3.16897 5.79168 2.96825 9.99964 2.96825H10.0004Z" fill="currentcolor"/>
</svg>
